<svg width="24" height="25" viewBox="0 0 24 25" fill="none" xmlns="http://www.w3.org/2000/svg">
<path d="M21.579 6.89603C21.719 6.43103 21.579 6.09003 20.917 6.09003H18.724C18.166 6.09003 17.911 6.38503 17.771 6.70903C17.771 6.70903 16.656 9.42803 15.076 11.191C14.566 11.704 14.333 11.866 14.055 11.866C13.916 11.866 13.714 11.704 13.714 11.239V6.89603C13.714 6.33803 13.553 6.09003 13.088 6.09003H9.642C9.294 6.09003 9.084 6.34803 9.084 6.59403C9.084 7.12203 9.874 7.24403 9.955 8.73203V11.96C9.955 12.667 9.828 12.796 9.548 12.796C8.805 12.796 6.997 10.067 5.924 6.94303C5.715 6.33603 5.504 6.09103 4.944 6.09103H2.752C2.125 6.09103 2 6.38603 2 6.71003C2 7.29203 2.743 10.172 5.461 13.981C7.273 16.582 9.824 17.992 12.148 17.992C13.541 17.992 13.713 17.679 13.713 17.139V15.173C13.713 14.547 13.846 14.421 14.287 14.421C14.611 14.421 15.169 14.585 16.47 15.838C17.956 17.324 18.202 17.991 19.037 17.991H21.229C21.855 17.991 22.168 17.678 21.988 17.06C21.791 16.445 21.081 15.55 20.139 14.491C19.627 13.887 18.862 13.237 18.629 12.912C18.304 12.493 18.398 12.308 18.629 11.936C18.63 11.937 21.301 8.17503 21.579 6.89603Z" fill="#8D8D8D"/>
</svg>
