<svg width="9" height="3" viewBox="0 0 9 3" fill="none" xmlns="http://www.w3.org/2000/svg">
<path fill-rule="evenodd" clip-rule="evenodd" d="M7.52678 0.75C7.13988 0.75 6.80357 1.07282 6.80357 1.5C6.80357 1.92718 7.13988 2.25 7.52678 2.25C7.91369 2.25 8.25 1.92718 8.25 1.5C8.25 1.07282 7.91369 0.75 7.52678 0.75ZM2.22321 0.75C1.83631 0.75 1.5 1.07282 1.5 1.5C1.5 1.92718 1.83631 2.25 2.22321 2.25C2.61012 2.25 2.94643 1.92718 2.94643 1.5C2.94643 1.07282 2.61012 0.75 2.22321 0.75ZM6.05357 1.5C6.05357 0.6714 6.71298 0 7.52678 0C8.34059 0 9 0.6714 9 1.5C9 2.3286 8.34059 3 7.52678 3C6.71298 3 6.05357 2.3286 6.05357 1.5ZM0.75 1.5C0.75 0.6714 1.40941 0 2.22321 0C3.03702 0 3.69643 0.6714 3.69643 1.5C3.69643 2.3286 3.03702 3 2.22321 3C1.40941 3 0.75 2.3286 0.75 1.5Z" fill="#8D8D8D"/>
</svg>
